<?xml version="1.0" encoding="UTF-8" standalone="no"?>
<!DOCTYPE svg PUBLIC "-//W3C//DTD SVG 1.1//EN"
 "https://www.w3.org/Graphics/SVG/1.1/DTD/svg11.dtd">
<!-- Generated by graphviz version 2.40.1 (20161225.0304)
 -->
<!-- Title: %3 Pages: 1 -->
<svg width="742pt" height="296pt"
 viewBox="0.00 0.00 742.00 296.00" xmlns="https://www.w3.org/2000/svg" xmlns:xlink="https://www.w3.org/1999/xlink">
<g id="graph0" class="graph" transform="scale(1 1) rotate(0) translate(4 292)">
<title>%3</title>
<polygon fill="#ffffff" stroke="transparent" points="-4,4 -4,-292 738,-292 738,4 -4,4"/>
<g id="clust1" class="cluster">
<title>cluster_inp</title>
<polygon fill="none" stroke="#000000" points="296,-227 296,-280 438,-280 438,-227 296,-227"/>
</g>
<g id="clust2" class="cluster">
<title>cluster_0</title>
<polygon fill="none" stroke="#000000" points="8,-154 8,-207 726,-207 726,-154 8,-154"/>
</g>
<g id="clust3" class="cluster">
<title>cluster_1</title>
<polygon fill="none" stroke="#000000" points="404,-81 404,-134 690,-134 690,-81 404,-81"/>
</g>
<g id="clust4" class="cluster">
<title>cluster_2</title>
<polygon fill="none" stroke="#000000" points="512,-8 512,-61 582,-61 582,-8 512,-8"/>
</g>
<!-- 0_1 -->
<g id="node1" class="node">
<title>0_1</title>
<polygon fill="none" stroke="#000000" points="376,-235.5 376,-271.5 430,-271.5 430,-235.5 376,-235.5"/>
<text text-anchor="middle" x="403" y="-249.8" font-family="Times,serif" font-size="14.00" fill="#000000">0_1</text>
</g>
<!-- 1_0 -->
<g id="node3" class="node">
<title>1_0</title>
<polygon fill="none" stroke="#000000" points="88,-162.5 88,-198.5 142,-198.5 142,-162.5 88,-162.5"/>
<text text-anchor="middle" x="115" y="-176.8" font-family="Times,serif" font-size="14.00" fill="#000000">1_0</text>
</g>
<!-- 0_1&#45;&gt;1_0 -->
<g id="edge1" class="edge">
<title>0_1&#45;&gt;1_0</title>
<path fill="none" stroke="#000000" d="M382.4243,-235.4583C377.6404,-232.1171 372.3678,-229.0416 367,-227 276.887,-192.7267 241.113,-241.2733 151,-207 148.8193,-206.1706 146.6544,-205.1706 144.5315,-204.0514"/>
<polygon fill="#000000" stroke="#000000" points="145.9269,-200.8006 135.5757,-198.5417 142.259,-206.7627 145.9269,-200.8006"/>
</g>
<!-- 1_1 -->
<g id="node4" class="node">
<title>1_1</title>
<polygon fill="none" stroke="#000000" points="664,-162.5 664,-198.5 718,-198.5 718,-162.5 664,-162.5"/>
<text text-anchor="middle" x="691" y="-176.8" font-family="Times,serif" font-size="14.00" fill="#000000">1_1</text>
</g>
<!-- 0_1&#45;&gt;1_1 -->
<g id="edge3" class="edge">
<title>0_1&#45;&gt;1_1</title>
<path fill="none" stroke="#000000" d="M430.2688,-252.4545C477.7863,-249.7789 578.0397,-240.3133 655,-207 656.8696,-206.1907 658.7342,-205.2688 660.5753,-204.2658"/>
<polygon fill="#000000" stroke="#000000" points="662.8514,-206.9723 669.4984,-198.7219 659.1572,-201.0264 662.8514,-206.9723"/>
</g>
<!-- 1_2 -->
<g id="node5" class="node">
<title>1_2</title>
<polygon fill="none" stroke="#000000" points="376,-162.5 376,-198.5 430,-198.5 430,-162.5 376,-162.5"/>
<text text-anchor="middle" x="403" y="-176.8" font-family="Times,serif" font-size="14.00" fill="#000000">1_2</text>
</g>
<!-- 0_1&#45;&gt;1_2 -->
<g id="edge6" class="edge">
<title>0_1&#45;&gt;1_2</title>
<path fill="none" stroke="#000000" d="M403,-235.4551C403,-227.3828 403,-217.6764 403,-208.6817"/>
<polygon fill="#000000" stroke="#000000" points="406.5001,-208.5903 403,-198.5904 399.5001,-208.5904 406.5001,-208.5903"/>
</g>
<!-- 1_3 -->
<g id="node6" class="node">
<title>1_3</title>
<polygon fill="none" stroke="#000000" points="304,-162.5 304,-198.5 358,-198.5 358,-162.5 304,-162.5"/>
<text text-anchor="middle" x="331" y="-176.8" font-family="Times,serif" font-size="14.00" fill="#000000">1_3</text>
</g>
<!-- 0_1&#45;&gt;1_3 -->
<g id="edge7" class="edge">
<title>0_1&#45;&gt;1_3</title>
<path fill="none" stroke="#000000" d="M385.2022,-235.4551C376.3752,-226.5054 365.5669,-215.547 355.9307,-205.7769"/>
<polygon fill="#000000" stroke="#000000" points="358.3566,-203.2523 348.8425,-198.5904 353.3728,-208.1678 358.3566,-203.2523"/>
</g>
<!-- 1_4 -->
<g id="node7" class="node">
<title>1_4</title>
<polygon fill="none" stroke="#000000" points="232,-162.5 232,-198.5 286,-198.5 286,-162.5 232,-162.5"/>
<text text-anchor="middle" x="259" y="-176.8" font-family="Times,serif" font-size="14.00" fill="#000000">1_4</text>
</g>
<!-- 0_1&#45;&gt;1_4 -->
<g id="edge9" class="edge">
<title>0_1&#45;&gt;1_4</title>
<path fill="none" stroke="#000000" d="M380.9487,-235.3509C376.5101,-232.2604 371.7456,-229.3085 367,-227 337.1345,-212.4719 324.8655,-221.5281 295,-207 293.2204,-206.1343 291.4381,-205.1782 289.6714,-204.1581"/>
<polygon fill="#000000" stroke="#000000" points="291.3623,-201.0851 281.0513,-198.6491 287.5927,-206.9834 291.3623,-201.0851"/>
</g>
<!-- 1_5 -->
<g id="node8" class="node">
<title>1_5</title>
<polygon fill="none" stroke="#000000" points="160,-162.5 160,-198.5 214,-198.5 214,-162.5 160,-162.5"/>
<text text-anchor="middle" x="187" y="-176.8" font-family="Times,serif" font-size="14.00" fill="#000000">1_5</text>
</g>
<!-- 0_1&#45;&gt;1_5 -->
<g id="edge11" class="edge">
<title>0_1&#45;&gt;1_5</title>
<path fill="none" stroke="#000000" d="M381.963,-235.372C377.2882,-232.1223 372.176,-229.1051 367,-227 307.1466,-202.6569 282.8534,-231.3431 223,-207 220.8972,-206.1448 218.805,-205.139 216.7484,-204.0283"/>
<polygon fill="#000000" stroke="#000000" points="218.3805,-200.9222 208.037,-198.628 214.6922,-206.8717 218.3805,-200.9222"/>
</g>
<!-- 1_6 -->
<g id="node9" class="node">
<title>1_6</title>
<polygon fill="none" stroke="#000000" points="448,-162.5 448,-198.5 502,-198.5 502,-162.5 448,-162.5"/>
<text text-anchor="middle" x="475" y="-176.8" font-family="Times,serif" font-size="14.00" fill="#000000">1_6</text>
</g>
<!-- 0_1&#45;&gt;1_6 -->
<g id="edge14" class="edge">
<title>0_1&#45;&gt;1_6</title>
<path fill="none" stroke="#000000" d="M420.7978,-235.4551C429.6248,-226.5054 440.4331,-215.547 450.0693,-205.7769"/>
<polygon fill="#000000" stroke="#000000" points="452.6272,-208.1678 457.1575,-198.5904 447.6434,-203.2523 452.6272,-208.1678"/>
</g>
<!-- 1_7 -->
<g id="node10" class="node">
<title>1_7</title>
<polygon fill="none" stroke="#000000" points="16,-162.5 16,-198.5 70,-198.5 70,-162.5 16,-162.5"/>
<text text-anchor="middle" x="43" y="-176.8" font-family="Times,serif" font-size="14.00" fill="#000000">1_7</text>
</g>
<!-- 0_1&#45;&gt;1_7 -->
<g id="edge15" class="edge">
<title>0_1&#45;&gt;1_7</title>
<path fill="none" stroke="#000000" d="M382.4594,-235.3645C377.6733,-232.0292 372.3909,-228.9797 367,-227 246.5564,-182.7693 199.4436,-251.2307 79,-207 76.8099,-206.1957 74.6378,-205.2149 72.5096,-204.1101"/>
<polygon fill="#000000" stroke="#000000" points="73.8997,-200.8582 63.5406,-198.6355 70.2526,-206.8331 73.8997,-200.8582"/>
</g>
<!-- 1_8 -->
<g id="node11" class="node">
<title>1_8</title>
<polygon fill="none" stroke="#000000" points="520,-162.5 520,-198.5 574,-198.5 574,-162.5 520,-162.5"/>
<text text-anchor="middle" x="547" y="-176.8" font-family="Times,serif" font-size="14.00" fill="#000000">1_8</text>
</g>
<!-- 0_1&#45;&gt;1_8 -->
<g id="edge17" class="edge">
<title>0_1&#45;&gt;1_8</title>
<path fill="none" stroke="#000000" d="M430.0004,-243.849C452.3552,-235.3987 484.612,-222.1284 511,-207 512.4812,-206.1508 513.9737,-205.2519 515.4646,-204.318"/>
<polygon fill="#000000" stroke="#000000" points="517.5216,-207.1531 523.8964,-198.6907 513.6357,-201.3307 517.5216,-207.1531"/>
</g>
<!-- 1_9 -->
<g id="node12" class="node">
<title>1_9</title>
<polygon fill="none" stroke="#000000" points="592,-162.5 592,-198.5 646,-198.5 646,-162.5 592,-162.5"/>
<text text-anchor="middle" x="619" y="-176.8" font-family="Times,serif" font-size="14.00" fill="#000000">1_9</text>
</g>
<!-- 0_1&#45;&gt;1_9 -->
<g id="edge19" class="edge">
<title>0_1&#45;&gt;1_9</title>
<path fill="none" stroke="#000000" d="M430.0258,-249.8108C466.2298,-244.1459 531.8402,-231.3154 583,-207 584.7874,-206.1505 586.5759,-205.2073 588.3475,-204.1975"/>
<polygon fill="#000000" stroke="#000000" points="590.4136,-207.0317 596.9823,-198.7189 586.6633,-201.121 590.4136,-207.0317"/>
</g>
<!-- 0_0 -->
<g id="node2" class="node">
<title>0_0</title>
<polygon fill="none" stroke="#000000" points="304,-235.5 304,-271.5 358,-271.5 358,-235.5 304,-235.5"/>
<text text-anchor="middle" x="331" y="-249.8" font-family="Times,serif" font-size="14.00" fill="#000000">0_0</text>
</g>
<!-- 0_0&#45;&gt;1_0 -->
<g id="edge2" class="edge">
<title>0_0&#45;&gt;1_0</title>
<path fill="none" stroke="#000000" d="M303.9742,-249.8108C267.7702,-244.1459 202.1598,-231.3154 151,-207 149.2126,-206.1505 147.4241,-205.2073 145.6525,-204.1975"/>
<polygon fill="#000000" stroke="#000000" points="147.3367,-201.121 137.0177,-198.7189 143.5864,-207.0317 147.3367,-201.121"/>
</g>
<!-- 0_0&#45;&gt;1_1 -->
<g id="edge4" class="edge">
<title>0_0&#45;&gt;1_1</title>
<path fill="none" stroke="#000000" d="M351.5406,-235.3645C356.3267,-232.0292 361.6091,-228.9797 367,-227 487.4436,-182.7693 534.5564,-251.2307 655,-207 657.1901,-206.1957 659.3622,-205.2149 661.4904,-204.1101"/>
<polygon fill="#000000" stroke="#000000" points="663.7474,-206.8331 670.4594,-198.6355 660.1003,-200.8582 663.7474,-206.8331"/>
</g>
<!-- 0_0&#45;&gt;1_2 -->
<g id="edge5" class="edge">
<title>0_0&#45;&gt;1_2</title>
<path fill="none" stroke="#000000" d="M348.7978,-235.4551C357.6248,-226.5054 368.4331,-215.547 378.0693,-205.7769"/>
<polygon fill="#000000" stroke="#000000" points="380.6272,-208.1678 385.1575,-198.5904 375.6434,-203.2523 380.6272,-208.1678"/>
</g>
<!-- 0_0&#45;&gt;1_3 -->
<g id="edge8" class="edge">
<title>0_0&#45;&gt;1_3</title>
<path fill="none" stroke="#000000" d="M331,-235.4551C331,-227.3828 331,-217.6764 331,-208.6817"/>
<polygon fill="#000000" stroke="#000000" points="334.5001,-208.5903 331,-198.5904 327.5001,-208.5904 334.5001,-208.5903"/>
</g>
<!-- 0_0&#45;&gt;1_4 -->
<g id="edge10" class="edge">
<title>0_0&#45;&gt;1_4</title>
<path fill="none" stroke="#000000" d="M313.2022,-235.4551C304.3752,-226.5054 293.5669,-215.547 283.9307,-205.7769"/>
<polygon fill="#000000" stroke="#000000" points="286.3566,-203.2523 276.8425,-198.5904 281.3728,-208.1678 286.3566,-203.2523"/>
</g>
<!-- 0_0&#45;&gt;1_5 -->
<g id="edge12" class="edge">
<title>0_0&#45;&gt;1_5</title>
<path fill="none" stroke="#000000" d="M303.9996,-243.849C281.6448,-235.3987 249.388,-222.1284 223,-207 221.5188,-206.1508 220.0263,-205.2519 218.5354,-204.318"/>
<polygon fill="#000000" stroke="#000000" points="220.3643,-201.3307 210.1036,-198.6907 216.4784,-207.1531 220.3643,-201.3307"/>
</g>
<!-- 0_0&#45;&gt;1_6 -->
<g id="edge13" class="edge">
<title>0_0&#45;&gt;1_6</title>
<path fill="none" stroke="#000000" d="M353.0513,-235.3509C357.4899,-232.2604 362.2544,-229.3085 367,-227 396.8655,-212.4719 409.1345,-221.5281 439,-207 440.7796,-206.1343 442.5619,-205.1782 444.3286,-204.1581"/>
<polygon fill="#000000" stroke="#000000" points="446.4073,-206.9834 452.9487,-198.6491 442.6377,-201.0851 446.4073,-206.9834"/>
</g>
<!-- 0_0&#45;&gt;1_7 -->
<g id="edge16" class="edge">
<title>0_0&#45;&gt;1_7</title>
<path fill="none" stroke="#000000" d="M303.7312,-252.4545C256.2137,-249.7789 155.9603,-240.3133 79,-207 77.1304,-206.1907 75.2658,-205.2688 73.4247,-204.2658"/>
<polygon fill="#000000" stroke="#000000" points="74.8428,-201.0264 64.5016,-198.7219 71.1486,-206.9723 74.8428,-201.0264"/>
</g>
<!-- 0_0&#45;&gt;1_8 -->
<g id="edge18" class="edge">
<title>0_0&#45;&gt;1_8</title>
<path fill="none" stroke="#000000" d="M352.037,-235.372C356.7118,-232.1223 361.824,-229.1051 367,-227 426.8534,-202.6569 451.1466,-231.3431 511,-207 513.1028,-206.1448 515.195,-205.139 517.2516,-204.0283"/>
<polygon fill="#000000" stroke="#000000" points="519.3078,-206.8717 525.963,-198.628 515.6195,-200.9222 519.3078,-206.8717"/>
</g>
<!-- 0_0&#45;&gt;1_9 -->
<g id="edge20" class="edge">
<title>0_0&#45;&gt;1_9</title>
<path fill="none" stroke="#000000" d="M351.5757,-235.4583C356.3596,-232.1171 361.6322,-229.0416 367,-227 457.113,-192.7267 492.887,-241.2733 583,-207 585.1807,-206.1706 587.3456,-205.1706 589.4685,-204.0514"/>
<polygon fill="#000000" stroke="#000000" points="591.741,-206.7627 598.4243,-198.5417 588.0731,-200.8006 591.741,-206.7627"/>
</g>
<!-- 2_0 -->
<g id="node13" class="node">
<title>2_0</title>
<polygon fill="none" stroke="#000000" points="412,-89.5 412,-125.5 466,-125.5 466,-89.5 412,-89.5"/>
<text text-anchor="middle" x="439" y="-103.8" font-family="Times,serif" font-size="14.00" fill="#000000">2_0</text>
</g>
<!-- 1_0&#45;&gt;2_0 -->
<g id="edge25" class="edge">
<title>1_0&#45;&gt;2_0</title>
<path fill="none" stroke="#000000" d="M136.0735,-162.4604C140.7457,-159.2043 145.8475,-156.1621 151,-154 195.6631,-135.2579 334.3535,-118.5647 401.6366,-111.3208"/>
<polygon fill="#000000" stroke="#000000" points="402.2228,-114.7783 411.7967,-110.2405 401.4826,-107.8176 402.2228,-114.7783"/>
</g>
<!-- 2_2 -->
<g id="node15" class="node">
<title>2_2</title>
<polygon fill="none" stroke="#000000" points="484,-89.5 484,-125.5 538,-125.5 538,-89.5 484,-89.5"/>
<text text-anchor="middle" x="511" y="-103.8" font-family="Times,serif" font-size="14.00" fill="#000000">2_2</text>
</g>
<!-- 1_0&#45;&gt;2_2 -->
<g id="edge27" class="edge">
<title>1_0&#45;&gt;2_2</title>
<path fill="none" stroke="#000000" d="M135.5292,-162.3331C140.316,-158.9997 145.6015,-155.959 151,-154 286.6208,-104.7861 339.3792,-183.2139 475,-134 477.1931,-133.2042 479.3676,-132.2298 481.4976,-131.1298"/>
<polygon fill="#000000" stroke="#000000" points="483.7493,-133.8566 490.4708,-125.6669 480.1092,-127.8775 483.7493,-133.8566"/>
</g>
<!-- 1_1&#45;&gt;2_0 -->
<g id="edge21" class="edge">
<title>1_1&#45;&gt;2_0</title>
<path fill="none" stroke="#000000" d="M670.0068,-162.262C665.3288,-159.0203 660.2043,-156.0342 655,-154 580.0309,-124.6973 549.9691,-163.3027 475,-134 472.8858,-133.1736 470.7847,-132.1901 468.7213,-131.0962"/>
<polygon fill="#000000" stroke="#000000" points="470.3466,-127.987 459.9932,-125.738 466.6843,-133.9526 470.3466,-127.987"/>
</g>
<!-- 2_1 -->
<g id="node14" class="node">
<title>2_1</title>
<polygon fill="none" stroke="#000000" points="556,-89.5 556,-125.5 610,-125.5 610,-89.5 556,-89.5"/>
<text text-anchor="middle" x="583" y="-103.8" font-family="Times,serif" font-size="14.00" fill="#000000">2_1</text>
</g>
<!-- 1_1&#45;&gt;2_1 -->
<g id="edge26" class="edge">
<title>1_1&#45;&gt;2_1</title>
<path fill="none" stroke="#000000" d="M667.2873,-162.3893C663.248,-159.4948 659.0488,-156.5999 655,-154 639.5986,-144.1102 634.4014,-143.8898 619,-134 617.7348,-133.1875 616.4548,-132.3463 615.1697,-131.4852"/>
<polygon fill="#000000" stroke="#000000" points="616.9224,-128.4412 606.7127,-125.6107 612.9289,-134.1903 616.9224,-128.4412"/>
</g>
<!-- 1_1&#45;&gt;2_2 -->
<g id="edge28" class="edge">
<title>1_1&#45;&gt;2_2</title>
<path fill="none" stroke="#000000" d="M669.4973,-162.2807C664.9352,-159.1196 659.9848,-156.1596 655,-154 610.207,-134.5938 591.793,-153.4062 547,-134 545.1307,-133.1901 543.2662,-132.2677 541.4253,-131.2644"/>
<polygon fill="#000000" stroke="#000000" points="542.8436,-128.025 532.5027,-125.7193 539.1487,-133.9705 542.8436,-128.025"/>
</g>
<!-- 2_3 -->
<g id="node16" class="node">
<title>2_3</title>
<polygon fill="none" stroke="#000000" points="628,-89.5 628,-125.5 682,-125.5 682,-89.5 628,-89.5"/>
<text text-anchor="middle" x="655" y="-103.8" font-family="Times,serif" font-size="14.00" fill="#000000">2_3</text>
</g>
<!-- 1_1&#45;&gt;2_3 -->
<g id="edge34" class="edge">
<title>1_1&#45;&gt;2_3</title>
<path fill="none" stroke="#000000" d="M682.1011,-162.4551C677.9905,-154.1196 673.0205,-144.0416 668.4651,-134.8042"/>
<polygon fill="#000000" stroke="#000000" points="671.4833,-133.011 663.9213,-125.5904 665.2052,-136.1071 671.4833,-133.011"/>
</g>
<!-- 1_3&#45;&gt;2_0 -->
<g id="edge24" class="edge">
<title>1_3&#45;&gt;2_0</title>
<path fill="none" stroke="#000000" d="M355.2546,-162.3353C359.1538,-159.5052 363.1674,-156.6446 367,-154 378.6141,-145.986 391.5033,-137.5288 403.1293,-130.0563"/>
<polygon fill="#000000" stroke="#000000" points="405.1908,-132.8925 411.7315,-124.5576 401.4207,-126.9945 405.1908,-132.8925"/>
</g>
<!-- 1_3&#45;&gt;2_2 -->
<g id="edge31" class="edge">
<title>1_3&#45;&gt;2_2</title>
<path fill="none" stroke="#000000" d="M352.5027,-162.2807C357.0648,-159.1196 362.0152,-156.1596 367,-154 411.793,-134.5938 430.207,-153.4062 475,-134 476.8693,-133.1901 478.7338,-132.2677 480.5747,-131.2644"/>
<polygon fill="#000000" stroke="#000000" points="482.8513,-133.9705 489.4973,-125.7193 479.1564,-128.025 482.8513,-133.9705"/>
</g>
<!-- 1_4&#45;&gt;2_0 -->
<g id="edge22" class="edge">
<title>1_4&#45;&gt;2_0</title>
<path fill="none" stroke="#000000" d="M281.522,-162.2353C285.8404,-159.2281 290.4413,-156.3355 295,-154 329.5103,-136.3199 372.0941,-123.5696 401.9701,-115.9416"/>
<polygon fill="#000000" stroke="#000000" points="403.1119,-119.2645 411.9736,-113.4575 401.4248,-112.4708 403.1119,-119.2645"/>
</g>
<!-- 1_4&#45;&gt;2_2 -->
<g id="edge29" class="edge">
<title>1_4&#45;&gt;2_2</title>
<path fill="none" stroke="#000000" d="M279.9932,-162.262C284.6712,-159.0203 289.7957,-156.0342 295,-154 369.9691,-124.6973 400.0309,-163.3027 475,-134 477.1142,-133.1736 479.2153,-132.1901 481.2787,-131.0962"/>
<polygon fill="#000000" stroke="#000000" points="483.3157,-133.9526 490.0068,-125.738 479.6534,-127.987 483.3157,-133.9526"/>
</g>
<!-- 1_6&#45;&gt;2_0 -->
<g id="edge23" class="edge">
<title>1_6&#45;&gt;2_0</title>
<path fill="none" stroke="#000000" d="M466.1011,-162.4551C461.9905,-154.1196 457.0205,-144.0416 452.4651,-134.8042"/>
<polygon fill="#000000" stroke="#000000" points="455.4833,-133.011 447.9213,-125.5904 449.2052,-136.1071 455.4833,-133.011"/>
</g>
<!-- 1_6&#45;&gt;2_2 -->
<g id="edge30" class="edge">
<title>1_6&#45;&gt;2_2</title>
<path fill="none" stroke="#000000" d="M483.8989,-162.4551C488.0095,-154.1196 492.9795,-144.0416 497.5349,-134.8042"/>
<polygon fill="#000000" stroke="#000000" points="500.7948,-136.1071 502.0787,-125.5904 494.5167,-133.011 500.7948,-136.1071"/>
</g>
<!-- 1_8&#45;&gt;2_2 -->
<g id="edge32" class="edge">
<title>1_8&#45;&gt;2_2</title>
<path fill="none" stroke="#000000" d="M538.1011,-162.4551C533.9905,-154.1196 529.0205,-144.0416 524.4651,-134.8042"/>
<polygon fill="#000000" stroke="#000000" points="527.4833,-133.011 519.9213,-125.5904 521.2052,-136.1071 527.4833,-133.011"/>
</g>
<!-- 1_9&#45;&gt;2_2 -->
<g id="edge33" class="edge">
<title>1_9&#45;&gt;2_2</title>
<path fill="none" stroke="#000000" d="M595.2873,-162.3893C591.248,-159.4948 587.0488,-156.5999 583,-154 567.5986,-144.1102 562.4014,-143.8898 547,-134 545.7348,-133.1875 544.4548,-132.3463 543.1697,-131.4852"/>
<polygon fill="#000000" stroke="#000000" points="544.9224,-128.4412 534.7127,-125.6107 540.9289,-134.1903 544.9224,-128.4412"/>
</g>
<!-- 3_0 -->
<g id="node17" class="node">
<title>3_0</title>
<polygon fill="none" stroke="#000000" points="520,-16.5 520,-52.5 574,-52.5 574,-16.5 520,-16.5"/>
<text text-anchor="middle" x="547" y="-30.8" font-family="Times,serif" font-size="14.00" fill="#000000">3_0</text>
</g>
<!-- 2_0&#45;&gt;3_0 -->
<g id="edge35" class="edge">
<title>2_0&#45;&gt;3_0</title>
<path fill="none" stroke="#000000" d="M463.2546,-89.3353C467.1538,-86.5052 471.1674,-83.6446 475,-81 486.6141,-72.986 499.5033,-64.5288 511.1293,-57.0563"/>
<polygon fill="#000000" stroke="#000000" points="513.1908,-59.8925 519.7315,-51.5576 509.4207,-53.9945 513.1908,-59.8925"/>
</g>
<!-- 2_1&#45;&gt;3_0 -->
<g id="edge37" class="edge">
<title>2_1&#45;&gt;3_0</title>
<path fill="none" stroke="#000000" d="M574.1011,-89.4551C569.9905,-81.1196 565.0205,-71.0416 560.4651,-61.8042"/>
<polygon fill="#000000" stroke="#000000" points="563.4833,-60.011 555.9213,-52.5904 557.2052,-63.1071 563.4833,-60.011"/>
</g>
<!-- 2_2&#45;&gt;3_0 -->
<g id="edge36" class="edge">
<title>2_2&#45;&gt;3_0</title>
<path fill="none" stroke="#000000" d="M519.8989,-89.4551C524.0095,-81.1196 528.9795,-71.0416 533.5349,-61.8042"/>
<polygon fill="#000000" stroke="#000000" points="536.7948,-63.1071 538.0787,-52.5904 530.5167,-60.011 536.7948,-63.1071"/>
</g>
<!-- 2_3&#45;&gt;3_0 -->
<g id="edge38" class="edge">
<title>2_3&#45;&gt;3_0</title>
<path fill="none" stroke="#000000" d="M630.7454,-89.3353C626.8462,-86.5052 622.8326,-83.6446 619,-81 607.3859,-72.986 594.4967,-64.5288 582.8707,-57.0563"/>
<polygon fill="#000000" stroke="#000000" points="584.5793,-53.9945 574.2685,-51.5576 580.8092,-59.8925 584.5793,-53.9945"/>
</g>
</g>
</svg>
