<?xml version="1.0" encoding="UTF-8" standalone="no"?>
<!DOCTYPE svg PUBLIC "-//W3C//DTD SVG 1.1//EN"
 "http://www.w3.org/Graphics/SVG/1.1/DTD/svg11.dtd">
<!-- Generated by graphviz version 2.40.1 (20161225.0304)
 -->
<!-- Title: %3 Pages: 1 -->
<svg width="1498pt" height="296pt"
 viewBox="0.00 0.00 1498.00 296.00" xmlns="http://www.w3.org/2000/svg" xmlns:xlink="http://www.w3.org/1999/xlink">
<g id="graph0" class="graph" transform="scale(1 1) rotate(0) translate(4 292)">
<title>%3</title>
<polygon fill="#ffffff" stroke="transparent" points="-4,4 -4,-292 1494,-292 1494,4 -4,4"/>
<g id="clust1" class="cluster">
<title>cluster_inp</title>
<polygon fill="none" stroke="#000000" points="512,-227 512,-280 654,-280 654,-227 512,-227"/>
</g>
<g id="clust2" class="cluster">
<title>cluster_0</title>
<polygon fill="none" stroke="#000000" points="8,-154 8,-207 1158,-207 1158,-154 8,-154"/>
</g>
<g id="clust3" class="cluster">
<title>cluster_1</title>
<polygon fill="none" stroke="#000000" points="332,-81 332,-134 1482,-134 1482,-81 332,-81"/>
</g>
<g id="clust4" class="cluster">
<title>cluster_2</title>
<polygon fill="none" stroke="#000000" points="764,-8 764,-61 834,-61 834,-8 764,-8"/>
</g>
<!-- 0_1 -->
<g id="node1" class="node">
<title>0_1</title>
<polygon fill="none" stroke="#000000" points="520,-235.5 520,-271.5 574,-271.5 574,-235.5 520,-235.5"/>
<text text-anchor="middle" x="547" y="-249.8" font-family="Times,serif" font-size="14.00" fill="#000000">0_1</text>
</g>
<!-- 1_0 -->
<g id="node3" class="node">
<title>1_0</title>
<polygon fill="none" stroke="#000000" points="1096,-162.5 1096,-198.5 1150,-198.5 1150,-162.5 1096,-162.5"/>
<text text-anchor="middle" x="1123" y="-176.8" font-family="Times,serif" font-size="14.00" fill="#000000">1_0</text>
</g>
<!-- 0_1&#45;&gt;1_0 -->
<g id="edge1" class="edge">
<title>0_1&#45;&gt;1_0</title>
<path fill="none" stroke="#000000" d="M567.497,-235.2429C572.2858,-231.9152 577.5803,-228.8995 583,-227 688.7793,-189.9259 981.2207,-244.0741 1087,-207 1089.2018,-206.2283 1091.3828,-205.2724 1093.5178,-204.1863"/>
<polygon fill="#000000" stroke="#000000" points="1095.7541,-206.9243 1102.503,-198.7571 1092.134,-200.9331 1095.7541,-206.9243"/>
</g>
<!-- 1_1 -->
<g id="node4" class="node">
<title>1_1</title>
<polygon fill="none" stroke="#000000" points="808,-162.5 808,-198.5 862,-198.5 862,-162.5 808,-162.5"/>
<text text-anchor="middle" x="835" y="-176.8" font-family="Times,serif" font-size="14.00" fill="#000000">1_1</text>
</g>
<!-- 0_1&#45;&gt;1_1 -->
<g id="edge3" class="edge">
<title>0_1&#45;&gt;1_1</title>
<path fill="none" stroke="#000000" d="M567.5757,-235.4583C572.3596,-232.1171 577.6322,-229.0416 583,-227 673.113,-192.7267 708.887,-241.2733 799,-207 801.1807,-206.1706 803.3456,-205.1706 805.4685,-204.0514"/>
<polygon fill="#000000" stroke="#000000" points="807.741,-206.7627 814.4243,-198.5417 804.0731,-200.8006 807.741,-206.7627"/>
</g>
<!-- 1_2 -->
<g id="node5" class="node">
<title>1_2</title>
<polygon fill="none" stroke="#000000" points="1024,-162.5 1024,-198.5 1078,-198.5 1078,-162.5 1024,-162.5"/>
<text text-anchor="middle" x="1051" y="-176.8" font-family="Times,serif" font-size="14.00" fill="#000000">1_2</text>
</g>
<!-- 0_1&#45;&gt;1_2 -->
<g id="edge5" class="edge">
<title>0_1&#45;&gt;1_2</title>
<path fill="none" stroke="#000000" d="M567.5065,-235.27C572.2948,-231.9406 577.5866,-228.9174 583,-227 673.5883,-194.914 924.4117,-239.086 1015,-207 1017.1992,-206.2211 1019.3783,-205.2596 1021.5118,-204.1693"/>
<polygon fill="#000000" stroke="#000000" points="1023.7528,-206.904 1030.4935,-198.73 1020.1267,-200.9164 1023.7528,-206.904"/>
</g>
<!-- 1_3 -->
<g id="node6" class="node">
<title>1_3</title>
<polygon fill="none" stroke="#000000" points="16,-162.5 16,-198.5 70,-198.5 70,-162.5 16,-162.5"/>
<text text-anchor="middle" x="43" y="-176.8" font-family="Times,serif" font-size="14.00" fill="#000000">1_3</text>
</g>
<!-- 0_1&#45;&gt;1_3 -->
<g id="edge8" class="edge">
<title>0_1&#45;&gt;1_3</title>
<path fill="none" stroke="#000000" d="M519.9281,-252.6858C432.7944,-249.7744 160.5542,-238.3314 79,-207 76.8221,-206.1633 74.6593,-205.1577 72.538,-204.0343"/>
<polygon fill="#000000" stroke="#000000" points="73.935,-200.7839 63.5861,-198.5144 70.261,-206.7422 73.935,-200.7839"/>
</g>
<!-- 1_4 -->
<g id="node7" class="node">
<title>1_4</title>
<polygon fill="none" stroke="#000000" points="736,-162.5 736,-198.5 790,-198.5 790,-162.5 736,-162.5"/>
<text text-anchor="middle" x="763" y="-176.8" font-family="Times,serif" font-size="14.00" fill="#000000">1_4</text>
</g>
<!-- 0_1&#45;&gt;1_4 -->
<g id="edge9" class="edge">
<title>0_1&#45;&gt;1_4</title>
<path fill="none" stroke="#000000" d="M568.037,-235.372C572.7118,-232.1223 577.824,-229.1051 583,-227 642.8534,-202.6569 667.1466,-231.3431 727,-207 729.1028,-206.1448 731.195,-205.139 733.2516,-204.0283"/>
<polygon fill="#000000" stroke="#000000" points="735.3078,-206.8717 741.963,-198.628 731.6195,-200.9222 735.3078,-206.8717"/>
</g>
<!-- 1_5 -->
<g id="node8" class="node">
<title>1_5</title>
<polygon fill="none" stroke="#000000" points="664,-162.5 664,-198.5 718,-198.5 718,-162.5 664,-162.5"/>
<text text-anchor="middle" x="691" y="-176.8" font-family="Times,serif" font-size="14.00" fill="#000000">1_5</text>
</g>
<!-- 0_1&#45;&gt;1_5 -->
<g id="edge11" class="edge">
<title>0_1&#45;&gt;1_5</title>
<path fill="none" stroke="#000000" d="M569.0513,-235.3509C573.4899,-232.2604 578.2544,-229.3085 583,-227 612.8655,-212.4719 625.1345,-221.5281 655,-207 656.7796,-206.1343 658.5619,-205.1782 660.3286,-204.1581"/>
<polygon fill="#000000" stroke="#000000" points="662.4073,-206.9834 668.9487,-198.6491 658.6377,-201.0851 662.4073,-206.9834"/>
</g>
<!-- 1_6 -->
<g id="node9" class="node">
<title>1_6</title>
<polygon fill="none" stroke="#000000" points="520,-162.5 520,-198.5 574,-198.5 574,-162.5 520,-162.5"/>
<text text-anchor="middle" x="547" y="-176.8" font-family="Times,serif" font-size="14.00" fill="#000000">1_6</text>
</g>
<!-- 0_1&#45;&gt;1_6 -->
<g id="edge13" class="edge">
<title>0_1&#45;&gt;1_6</title>
<path fill="none" stroke="#000000" d="M547,-235.4551C547,-227.3828 547,-217.6764 547,-208.6817"/>
<polygon fill="#000000" stroke="#000000" points="550.5001,-208.5903 547,-198.5904 543.5001,-208.5904 550.5001,-208.5903"/>
</g>
<!-- 1_7 -->
<g id="node10" class="node">
<title>1_7</title>
<polygon fill="none" stroke="#000000" points="448,-162.5 448,-198.5 502,-198.5 502,-162.5 448,-162.5"/>
<text text-anchor="middle" x="475" y="-176.8" font-family="Times,serif" font-size="14.00" fill="#000000">1_7</text>
</g>
<!-- 0_1&#45;&gt;1_7 -->
<g id="edge16" class="edge">
<title>0_1&#45;&gt;1_7</title>
<path fill="none" stroke="#000000" d="M529.2022,-235.4551C520.3752,-226.5054 509.5669,-215.547 499.9307,-205.7769"/>
<polygon fill="#000000" stroke="#000000" points="502.3566,-203.2523 492.8425,-198.5904 497.3728,-208.1678 502.3566,-203.2523"/>
</g>
<!-- 1_8 -->
<g id="node11" class="node">
<title>1_8</title>
<polygon fill="none" stroke="#000000" points="592,-162.5 592,-198.5 646,-198.5 646,-162.5 592,-162.5"/>
<text text-anchor="middle" x="619" y="-176.8" font-family="Times,serif" font-size="14.00" fill="#000000">1_8</text>
</g>
<!-- 0_1&#45;&gt;1_8 -->
<g id="edge18" class="edge">
<title>0_1&#45;&gt;1_8</title>
<path fill="none" stroke="#000000" d="M564.7978,-235.4551C573.6248,-226.5054 584.4331,-215.547 594.0693,-205.7769"/>
<polygon fill="#000000" stroke="#000000" points="596.6272,-208.1678 601.1575,-198.5904 591.6434,-203.2523 596.6272,-208.1678"/>
</g>
<!-- 1_9 -->
<g id="node12" class="node">
<title>1_9</title>
<polygon fill="none" stroke="#000000" points="160,-162.5 160,-198.5 214,-198.5 214,-162.5 160,-162.5"/>
<text text-anchor="middle" x="187" y="-176.8" font-family="Times,serif" font-size="14.00" fill="#000000">1_9</text>
</g>
<!-- 0_1&#45;&gt;1_9 -->
<g id="edge19" class="edge">
<title>0_1&#45;&gt;1_9</title>
<path fill="none" stroke="#000000" d="M519.9648,-251.3262C452.2431,-245.6103 276.9053,-229.0666 223,-207 220.8992,-206.14 218.8085,-205.1306 216.753,-204.0171"/>
<polygon fill="#000000" stroke="#000000" points="218.3863,-200.9115 208.0445,-198.6098 214.6937,-206.8583 218.3863,-200.9115"/>
</g>
<!-- 1_10 -->
<g id="node13" class="node">
<title>1_10</title>
<polygon fill="none" stroke="#000000" points="880,-162.5 880,-198.5 934,-198.5 934,-162.5 880,-162.5"/>
<text text-anchor="middle" x="907" y="-176.8" font-family="Times,serif" font-size="14.00" fill="#000000">1_10</text>
</g>
<!-- 0_1&#45;&gt;1_10 -->
<g id="edge21" class="edge">
<title>0_1&#45;&gt;1_10</title>
<path fill="none" stroke="#000000" d="M567.5406,-235.3645C572.3267,-232.0292 577.6091,-228.9797 583,-227 703.4436,-182.7693 750.5564,-251.2307 871,-207 873.1901,-206.1957 875.3622,-205.2149 877.4904,-204.1101"/>
<polygon fill="#000000" stroke="#000000" points="879.7474,-206.8331 886.4594,-198.6355 876.1003,-200.8582 879.7474,-206.8331"/>
</g>
<!-- 1_11 -->
<g id="node14" class="node">
<title>1_11</title>
<polygon fill="none" stroke="#000000" points="376,-162.5 376,-198.5 430,-198.5 430,-162.5 376,-162.5"/>
<text text-anchor="middle" x="403" y="-176.8" font-family="Times,serif" font-size="14.00" fill="#000000">1_11</text>
</g>
<!-- 0_1&#45;&gt;1_11 -->
<g id="edge23" class="edge">
<title>0_1&#45;&gt;1_11</title>
<path fill="none" stroke="#000000" d="M519.9996,-243.849C497.6448,-235.3987 465.388,-222.1284 439,-207 437.5188,-206.1508 436.0263,-205.2519 434.5354,-204.318"/>
<polygon fill="#000000" stroke="#000000" points="436.3643,-201.3307 426.1036,-198.6907 432.4784,-207.1531 436.3643,-201.3307"/>
</g>
<!-- 1_12 -->
<g id="node15" class="node">
<title>1_12</title>
<polygon fill="none" stroke="#000000" points="304,-162.5 304,-198.5 358,-198.5 358,-162.5 304,-162.5"/>
<text text-anchor="middle" x="331" y="-176.8" font-family="Times,serif" font-size="14.00" fill="#000000">1_12</text>
</g>
<!-- 0_1&#45;&gt;1_12 -->
<g id="edge25" class="edge">
<title>0_1&#45;&gt;1_12</title>
<path fill="none" stroke="#000000" d="M519.9742,-249.8108C483.7702,-244.1459 418.1598,-231.3154 367,-207 365.2126,-206.1505 363.4241,-205.2073 361.6525,-204.1975"/>
<polygon fill="#000000" stroke="#000000" points="363.3367,-201.121 353.0177,-198.7189 359.5864,-207.0317 363.3367,-201.121"/>
</g>
<!-- 1_13 -->
<g id="node16" class="node">
<title>1_13</title>
<polygon fill="none" stroke="#000000" points="232,-162.5 232,-198.5 286,-198.5 286,-162.5 232,-162.5"/>
<text text-anchor="middle" x="259" y="-176.8" font-family="Times,serif" font-size="14.00" fill="#000000">1_13</text>
</g>
<!-- 0_1&#45;&gt;1_13 -->
<g id="edge28" class="edge">
<title>0_1&#45;&gt;1_13</title>
<path fill="none" stroke="#000000" d="M519.7312,-252.4545C472.2137,-249.7789 371.9603,-240.3133 295,-207 293.1304,-206.1907 291.2658,-205.2688 289.4247,-204.2658"/>
<polygon fill="#000000" stroke="#000000" points="290.8428,-201.0264 280.5016,-198.7219 287.1486,-206.9723 290.8428,-201.0264"/>
</g>
<!-- 1_14 -->
<g id="node17" class="node">
<title>1_14</title>
<polygon fill="none" stroke="#000000" points="952,-162.5 952,-198.5 1006,-198.5 1006,-162.5 952,-162.5"/>
<text text-anchor="middle" x="979" y="-176.8" font-family="Times,serif" font-size="14.00" fill="#000000">1_14</text>
</g>
<!-- 0_1&#45;&gt;1_14 -->
<g id="edge29" class="edge">
<title>0_1&#45;&gt;1_14</title>
<path fill="none" stroke="#000000" d="M567.5201,-235.3079C572.3074,-231.9761 577.5955,-228.9424 583,-227 733.8029,-172.8012 792.1971,-261.1988 943,-207 945.1956,-206.2109 947.3719,-205.2417 949.5033,-204.1456"/>
<polygon fill="#000000" stroke="#000000" points="951.7507,-206.8755 958.4799,-198.6921 948.1162,-200.893 951.7507,-206.8755"/>
</g>
<!-- 1_15 -->
<g id="node18" class="node">
<title>1_15</title>
<polygon fill="none" stroke="#000000" points="88,-162.5 88,-198.5 142,-198.5 142,-162.5 88,-162.5"/>
<text text-anchor="middle" x="115" y="-176.8" font-family="Times,serif" font-size="14.00" fill="#000000">1_15</text>
</g>
<!-- 0_1&#45;&gt;1_15 -->
<g id="edge31" class="edge">
<title>0_1&#45;&gt;1_15</title>
<path fill="none" stroke="#000000" d="M519.7865,-252.1188C441.7719,-247.8752 218.6133,-233.6707 151,-207 148.8883,-206.167 146.7892,-205.1785 144.7274,-204.0807"/>
<polygon fill="#000000" stroke="#000000" points="146.3542,-200.9722 136.003,-198.7128 142.686,-206.9341 146.3542,-200.9722"/>
</g>
<!-- 0_0 -->
<g id="node2" class="node">
<title>0_0</title>
<polygon fill="none" stroke="#000000" points="592,-235.5 592,-271.5 646,-271.5 646,-235.5 592,-235.5"/>
<text text-anchor="middle" x="619" y="-249.8" font-family="Times,serif" font-size="14.00" fill="#000000">0_0</text>
</g>
<!-- 0_0&#45;&gt;1_0 -->
<g id="edge2" class="edge">
<title>0_0&#45;&gt;1_0</title>
<path fill="none" stroke="#000000" d="M646.0719,-252.6858C733.2056,-249.7744 1005.4458,-238.3314 1087,-207 1089.1779,-206.1633 1091.3407,-205.1577 1093.462,-204.0343"/>
<polygon fill="#000000" stroke="#000000" points="1095.739,-206.7422 1102.4139,-198.5144 1092.065,-200.7839 1095.739,-206.7422"/>
</g>
<!-- 0_0&#45;&gt;1_1 -->
<g id="edge4" class="edge">
<title>0_0&#45;&gt;1_1</title>
<path fill="none" stroke="#000000" d="M646.0258,-249.8108C682.2298,-244.1459 747.8402,-231.3154 799,-207 800.7874,-206.1505 802.5759,-205.2073 804.3475,-204.1975"/>
<polygon fill="#000000" stroke="#000000" points="806.4136,-207.0317 812.9823,-198.7189 802.6633,-201.121 806.4136,-207.0317"/>
</g>
<!-- 0_0&#45;&gt;1_2 -->
<g id="edge6" class="edge">
<title>0_0&#45;&gt;1_2</title>
<path fill="none" stroke="#000000" d="M646.2135,-252.1188C724.2281,-247.8752 947.3867,-233.6707 1015,-207 1017.1117,-206.167 1019.2108,-205.1785 1021.2726,-204.0807"/>
<polygon fill="#000000" stroke="#000000" points="1023.314,-206.9341 1029.997,-198.7128 1019.6458,-200.9722 1023.314,-206.9341"/>
</g>
<!-- 0_0&#45;&gt;1_3 -->
<g id="edge7" class="edge">
<title>0_0&#45;&gt;1_3</title>
<path fill="none" stroke="#000000" d="M598.503,-235.2429C593.7142,-231.9152 588.4197,-228.8995 583,-227 477.2207,-189.9259 184.7793,-244.0741 79,-207 76.7982,-206.2283 74.6172,-205.2724 72.4822,-204.1863"/>
<polygon fill="#000000" stroke="#000000" points="73.866,-200.9331 63.497,-198.7571 70.2459,-206.9243 73.866,-200.9331"/>
</g>
<!-- 0_0&#45;&gt;1_4 -->
<g id="edge10" class="edge">
<title>0_0&#45;&gt;1_4</title>
<path fill="none" stroke="#000000" d="M646.0004,-243.849C668.3552,-235.3987 700.612,-222.1284 727,-207 728.4812,-206.1508 729.9737,-205.2519 731.4646,-204.318"/>
<polygon fill="#000000" stroke="#000000" points="733.5216,-207.1531 739.8964,-198.6907 729.6357,-201.3307 733.5216,-207.1531"/>
</g>
<!-- 0_0&#45;&gt;1_5 -->
<g id="edge12" class="edge">
<title>0_0&#45;&gt;1_5</title>
<path fill="none" stroke="#000000" d="M636.7978,-235.4551C645.6248,-226.5054 656.4331,-215.547 666.0693,-205.7769"/>
<polygon fill="#000000" stroke="#000000" points="668.6272,-208.1678 673.1575,-198.5904 663.6434,-203.2523 668.6272,-208.1678"/>
</g>
<!-- 0_0&#45;&gt;1_6 -->
<g id="edge14" class="edge">
<title>0_0&#45;&gt;1_6</title>
<path fill="none" stroke="#000000" d="M601.2022,-235.4551C592.3752,-226.5054 581.5669,-215.547 571.9307,-205.7769"/>
<polygon fill="#000000" stroke="#000000" points="574.3566,-203.2523 564.8425,-198.5904 569.3728,-208.1678 574.3566,-203.2523"/>
</g>
<!-- 0_0&#45;&gt;1_7 -->
<g id="edge15" class="edge">
<title>0_0&#45;&gt;1_7</title>
<path fill="none" stroke="#000000" d="M596.9487,-235.3509C592.5101,-232.2604 587.7456,-229.3085 583,-227 553.1345,-212.4719 540.8655,-221.5281 511,-207 509.2204,-206.1343 507.4381,-205.1782 505.6714,-204.1581"/>
<polygon fill="#000000" stroke="#000000" points="507.3623,-201.0851 497.0513,-198.6491 503.5927,-206.9834 507.3623,-201.0851"/>
</g>
<!-- 0_0&#45;&gt;1_8 -->
<g id="edge17" class="edge">
<title>0_0&#45;&gt;1_8</title>
<path fill="none" stroke="#000000" d="M619,-235.4551C619,-227.3828 619,-217.6764 619,-208.6817"/>
<polygon fill="#000000" stroke="#000000" points="622.5001,-208.5903 619,-198.5904 615.5001,-208.5904 622.5001,-208.5903"/>
</g>
<!-- 0_0&#45;&gt;1_9 -->
<g id="edge20" class="edge">
<title>0_0&#45;&gt;1_9</title>
<path fill="none" stroke="#000000" d="M598.4799,-235.3079C593.6926,-231.9761 588.4045,-228.9424 583,-227 432.1971,-172.8012 373.8029,-261.1988 223,-207 220.8044,-206.2109 218.6281,-205.2417 216.4967,-204.1456"/>
<polygon fill="#000000" stroke="#000000" points="217.8838,-200.893 207.5201,-198.6921 214.2493,-206.8755 217.8838,-200.893"/>
</g>
<!-- 0_0&#45;&gt;1_10 -->
<g id="edge22" class="edge">
<title>0_0&#45;&gt;1_10</title>
<path fill="none" stroke="#000000" d="M646.2688,-252.4545C693.7863,-249.7789 794.0397,-240.3133 871,-207 872.8696,-206.1907 874.7342,-205.2688 876.5753,-204.2658"/>
<polygon fill="#000000" stroke="#000000" points="878.8514,-206.9723 885.4984,-198.7219 875.1572,-201.0264 878.8514,-206.9723"/>
</g>
<!-- 0_0&#45;&gt;1_11 -->
<g id="edge24" class="edge">
<title>0_0&#45;&gt;1_11</title>
<path fill="none" stroke="#000000" d="M597.963,-235.372C593.2882,-232.1223 588.176,-229.1051 583,-227 523.1466,-202.6569 498.8534,-231.3431 439,-207 436.8972,-206.1448 434.805,-205.139 432.7484,-204.0283"/>
<polygon fill="#000000" stroke="#000000" points="434.3805,-200.9222 424.037,-198.628 430.6922,-206.8717 434.3805,-200.9222"/>
</g>
<!-- 0_0&#45;&gt;1_12 -->
<g id="edge26" class="edge">
<title>0_0&#45;&gt;1_12</title>
<path fill="none" stroke="#000000" d="M598.4243,-235.4583C593.6404,-232.1171 588.3678,-229.0416 583,-227 492.887,-192.7267 457.113,-241.2733 367,-207 364.8193,-206.1706 362.6544,-205.1706 360.5315,-204.0514"/>
<polygon fill="#000000" stroke="#000000" points="361.9269,-200.8006 351.5757,-198.5417 358.259,-206.7627 361.9269,-200.8006"/>
</g>
<!-- 0_0&#45;&gt;1_13 -->
<g id="edge27" class="edge">
<title>0_0&#45;&gt;1_13</title>
<path fill="none" stroke="#000000" d="M598.4594,-235.3645C593.6733,-232.0292 588.3909,-228.9797 583,-227 462.5564,-182.7693 415.4436,-251.2307 295,-207 292.8099,-206.1957 290.6378,-205.2149 288.5096,-204.1101"/>
<polygon fill="#000000" stroke="#000000" points="289.8997,-200.8582 279.5406,-198.6355 286.2526,-206.8331 289.8997,-200.8582"/>
</g>
<!-- 0_0&#45;&gt;1_14 -->
<g id="edge30" class="edge">
<title>0_0&#45;&gt;1_14</title>
<path fill="none" stroke="#000000" d="M646.0352,-251.3262C713.7569,-245.6103 889.0947,-229.0666 943,-207 945.1008,-206.14 947.1915,-205.1306 949.247,-204.0171"/>
<polygon fill="#000000" stroke="#000000" points="951.3063,-206.8583 957.9555,-198.6098 947.6137,-200.9115 951.3063,-206.8583"/>
</g>
<!-- 0_0&#45;&gt;1_15 -->
<g id="edge32" class="edge">
<title>0_0&#45;&gt;1_15</title>
<path fill="none" stroke="#000000" d="M598.4935,-235.27C593.7052,-231.9406 588.4134,-228.9174 583,-227 492.4117,-194.914 241.5883,-239.086 151,-207 148.8008,-206.2211 146.6217,-205.2596 144.4882,-204.1693"/>
<polygon fill="#000000" stroke="#000000" points="145.8733,-200.9164 135.5065,-198.73 142.2472,-206.904 145.8733,-200.9164"/>
</g>
<!-- 2_0 -->
<g id="node19" class="node">
<title>2_0</title>
<polygon fill="none" stroke="#000000" points="484,-89.5 484,-125.5 538,-125.5 538,-89.5 484,-89.5"/>
<text text-anchor="middle" x="511" y="-103.8" font-family="Times,serif" font-size="14.00" fill="#000000">2_0</text>
</g>
<!-- 1_0&#45;&gt;2_0 -->
<g id="edge40" class="edge">
<title>1_0&#45;&gt;2_0</title>
<path fill="none" stroke="#000000" d="M1102.5068,-162.2321C1097.7178,-158.905 1092.4222,-155.8924 1087,-154 973.6241,-114.4315 660.3759,-173.5685 547,-134 544.7972,-133.2312 542.6154,-132.2776 540.4799,-131.1931"/>
<polygon fill="#000000" stroke="#000000" points="541.8631,-127.9398 531.4932,-125.7679 538.2453,-133.9325 541.8631,-127.9398"/>
</g>
<!-- 2_1 -->
<g id="node20" class="node">
<title>2_1</title>
<polygon fill="none" stroke="#000000" points="340,-89.5 340,-125.5 394,-125.5 394,-89.5 340,-89.5"/>
<text text-anchor="middle" x="367" y="-103.8" font-family="Times,serif" font-size="14.00" fill="#000000">2_1</text>
</g>
<!-- 1_0&#45;&gt;2_1 -->
<g id="edge45" class="edge">
<title>1_0&#45;&gt;2_1</title>
<path fill="none" stroke="#000000" d="M1102.9052,-162.4703C1098.0145,-159.0381 1092.5763,-155.9218 1087,-154 943.2336,-104.4523 546.7664,-183.5477 403,-134 400.5604,-133.1592 398.1472,-132.0898 395.7947,-130.8653"/>
<polygon fill="#000000" stroke="#000000" points="397.4492,-127.7742 387.0948,-125.5297 393.7895,-133.7414 397.4492,-127.7742"/>
</g>
<!-- 2_3 -->
<g id="node22" class="node">
<title>2_3</title>
<polygon fill="none" stroke="#000000" points="844,-89.5 844,-125.5 898,-125.5 898,-89.5 844,-89.5"/>
<text text-anchor="middle" x="871" y="-103.8" font-family="Times,serif" font-size="14.00" fill="#000000">2_3</text>
</g>
<!-- 1_0&#45;&gt;2_3 -->
<g id="edge47" class="edge">
<title>1_0&#45;&gt;2_3</title>
<path fill="none" stroke="#000000" d="M1102.0068,-162.262C1097.3288,-159.0203 1092.2043,-156.0342 1087,-154 1012.0309,-124.6973 981.9691,-163.3027 907,-134 904.8858,-133.1736 902.7847,-132.1901 900.7213,-131.0962"/>
<polygon fill="#000000" stroke="#000000" points="902.3466,-127.987 891.9932,-125.738 898.6843,-133.9526 902.3466,-127.987"/>
</g>
<!-- 2_5 -->
<g id="node24" class="node">
<title>2_5</title>
<polygon fill="none" stroke="#000000" points="1420,-89.5 1420,-125.5 1474,-125.5 1474,-89.5 1420,-89.5"/>
<text text-anchor="middle" x="1447" y="-103.8" font-family="Times,serif" font-size="14.00" fill="#000000">2_5</text>
</g>
<!-- 1_0&#45;&gt;2_5 -->
<g id="edge55" class="edge">
<title>1_0&#45;&gt;2_5</title>
<path fill="none" stroke="#000000" d="M1150.2033,-177.7595C1212.5381,-171.2156 1363.9475,-153.7447 1411,-134 1413.0932,-133.1216 1415.178,-132.098 1417.2291,-130.9739"/>
<polygon fill="#000000" stroke="#000000" points="1419.3004,-133.8068 1425.9265,-125.5396 1415.5911,-127.8703 1419.3004,-133.8068"/>
</g>
<!-- 2_8 -->
<g id="node27" class="node">
<title>2_8</title>
<polygon fill="none" stroke="#000000" points="1132,-89.5 1132,-125.5 1186,-125.5 1186,-89.5 1132,-89.5"/>
<text text-anchor="middle" x="1159" y="-103.8" font-family="Times,serif" font-size="14.00" fill="#000000">2_8</text>
</g>
<!-- 1_0&#45;&gt;2_8 -->
<g id="edge58" class="edge">
<title>1_0&#45;&gt;2_8</title>
<path fill="none" stroke="#000000" d="M1131.8989,-162.4551C1136.0095,-154.1196 1140.9795,-144.0416 1145.5349,-134.8042"/>
<polygon fill="#000000" stroke="#000000" points="1148.7948,-136.1071 1150.0787,-125.5904 1142.5167,-133.011 1148.7948,-136.1071"/>
</g>
<!-- 2_11 -->
<g id="node30" class="node">
<title>2_11</title>
<polygon fill="none" stroke="#000000" points="1348,-89.5 1348,-125.5 1402,-125.5 1402,-89.5 1348,-89.5"/>
<text text-anchor="middle" x="1375" y="-103.8" font-family="Times,serif" font-size="14.00" fill="#000000">2_11</text>
</g>
<!-- 1_0&#45;&gt;2_11 -->
<g id="edge60" class="edge">
<title>1_0&#45;&gt;2_11</title>
<path fill="none" stroke="#000000" d="M1150.062,-178.3471C1192.1228,-174.2064 1274.9985,-162.8348 1339,-134 1340.8574,-133.1632 1342.7124,-132.2194 1344.5459,-131.1993"/>
<polygon fill="#000000" stroke="#000000" points="1346.8424,-133.8899 1353.447,-125.6055 1343.1177,-127.963 1346.8424,-133.8899"/>
</g>
<!-- 2_13 -->
<g id="node32" class="node">
<title>2_13</title>
<polygon fill="none" stroke="#000000" points="1276,-89.5 1276,-125.5 1330,-125.5 1330,-89.5 1276,-89.5"/>
<text text-anchor="middle" x="1303" y="-103.8" font-family="Times,serif" font-size="14.00" fill="#000000">2_13</text>
</g>
<!-- 1_0&#45;&gt;2_13 -->
<g id="edge62" class="edge">
<title>1_0&#45;&gt;2_13</title>
<path fill="none" stroke="#000000" d="M1150.0264,-174.5425C1179.7521,-167.3685 1228.4208,-153.7646 1267,-134 1268.567,-133.1972 1270.1391,-132.3285 1271.7029,-131.412"/>
<polygon fill="#000000" stroke="#000000" points="1273.963,-134.1197 1280.478,-125.7647 1270.1747,-128.2333 1273.963,-134.1197"/>
</g>
<!-- 2_15 -->
<g id="node34" class="node">
<title>2_15</title>
<polygon fill="none" stroke="#000000" points="1204,-89.5 1204,-125.5 1258,-125.5 1258,-89.5 1204,-89.5"/>
<text text-anchor="middle" x="1231" y="-103.8" font-family="Times,serif" font-size="14.00" fill="#000000">2_15</text>
</g>
<!-- 1_0&#45;&gt;2_15 -->
<g id="edge63" class="edge">
<title>1_0&#45;&gt;2_15</title>
<path fill="none" stroke="#000000" d="M1150.2685,-163.4424C1163.8429,-154.8116 1180.4254,-144.0567 1195,-134 1196.0779,-133.2562 1197.1701,-132.4953 1198.2701,-131.7229"/>
<polygon fill="#000000" stroke="#000000" points="1200.6454,-134.3273 1206.7454,-125.6647 1196.5747,-128.6325 1200.6454,-134.3273"/>
</g>
<!-- 1_1&#45;&gt;2_0 -->
<g id="edge33" class="edge">
<title>1_1&#45;&gt;2_0</title>
<path fill="none" stroke="#000000" d="M814.4445,-162.4048C809.6593,-159.067 804.3811,-156.0063 799,-154 693.7268,-114.7499 652.2732,-173.2501 547,-134 544.8139,-133.1849 542.6448,-132.1959 540.5189,-131.0849"/>
<polygon fill="#000000" stroke="#000000" points="541.9113,-127.8334 531.5555,-125.5952 538.2552,-133.8028 541.9113,-127.8334"/>
</g>
<!-- 1_1&#45;&gt;2_1 -->
<g id="edge41" class="edge">
<title>1_1&#45;&gt;2_1</title>
<path fill="none" stroke="#000000" d="M814.4873,-162.2873C809.6995,-158.9567 804.4094,-155.9288 799,-154 633.0116,-94.8151 568.9884,-193.1849 403,-134 400.8024,-133.2164 398.6246,-132.2515 396.4921,-131.1585"/>
<polygon fill="#000000" stroke="#000000" points="397.8781,-127.9057 387.5127,-125.7127 394.2481,-133.891 397.8781,-127.9057"/>
</g>
<!-- 2_2 -->
<g id="node21" class="node">
<title>2_2</title>
<polygon fill="none" stroke="#000000" points="916,-89.5 916,-125.5 970,-125.5 970,-89.5 916,-89.5"/>
<text text-anchor="middle" x="943" y="-103.8" font-family="Times,serif" font-size="14.00" fill="#000000">2_2</text>
</g>
<!-- 1_1&#45;&gt;2_2 -->
<g id="edge46" class="edge">
<title>1_1&#45;&gt;2_2</title>
<path fill="none" stroke="#000000" d="M858.7127,-162.3893C862.752,-159.4948 866.9512,-156.5999 871,-154 886.4014,-144.1102 891.5986,-143.8898 907,-134 908.2652,-133.1875 909.5452,-132.3463 910.8303,-131.4852"/>
<polygon fill="#000000" stroke="#000000" points="913.0711,-134.1903 919.2873,-125.6107 909.0776,-128.4412 913.0711,-134.1903"/>
</g>
<!-- 1_1&#45;&gt;2_3 -->
<g id="edge48" class="edge">
<title>1_1&#45;&gt;2_3</title>
<path fill="none" stroke="#000000" d="M843.8989,-162.4551C848.0095,-154.1196 852.9795,-144.0416 857.5349,-134.8042"/>
<polygon fill="#000000" stroke="#000000" points="860.7948,-136.1071 862.0787,-125.5904 854.5167,-133.011 860.7948,-136.1071"/>
</g>
<!-- 2_4 -->
<g id="node23" class="node">
<title>2_4</title>
<polygon fill="none" stroke="#000000" points="700,-89.5 700,-125.5 754,-125.5 754,-89.5 700,-89.5"/>
<text text-anchor="middle" x="727" y="-103.8" font-family="Times,serif" font-size="14.00" fill="#000000">2_4</text>
</g>
<!-- 1_1&#45;&gt;2_4 -->
<g id="edge54" class="edge">
<title>1_1&#45;&gt;2_4</title>
<path fill="none" stroke="#000000" d="M811.2873,-162.3893C807.248,-159.4948 803.0488,-156.5999 799,-154 783.5986,-144.1102 778.4014,-143.8898 763,-134 761.7348,-133.1875 760.4548,-132.3463 759.1697,-131.4852"/>
<polygon fill="#000000" stroke="#000000" points="760.9224,-128.4412 750.7127,-125.6107 756.9289,-134.1903 760.9224,-128.4412"/>
</g>
<!-- 2_7 -->
<g id="node26" class="node">
<title>2_7</title>
<polygon fill="none" stroke="#000000" points="556,-89.5 556,-125.5 610,-125.5 610,-89.5 556,-89.5"/>
<text text-anchor="middle" x="583" y="-103.8" font-family="Times,serif" font-size="14.00" fill="#000000">2_7</text>
</g>
<!-- 1_1&#45;&gt;2_7 -->
<g id="edge56" class="edge">
<title>1_1&#45;&gt;2_7</title>
<path fill="none" stroke="#000000" d="M814.0068,-162.262C809.3288,-159.0203 804.2043,-156.0342 799,-154 724.0309,-124.6973 693.9691,-163.3027 619,-134 616.8858,-133.1736 614.7847,-132.1901 612.7213,-131.0962"/>
<polygon fill="#000000" stroke="#000000" points="614.3466,-127.987 603.9932,-125.738 610.6843,-133.9526 614.3466,-127.987"/>
</g>
<!-- 1_1&#45;&gt;2_8 -->
<g id="edge57" class="edge">
<title>1_1&#45;&gt;2_8</title>
<path fill="none" stroke="#000000" d="M855.5555,-162.4048C860.3407,-159.067 865.6189,-156.0063 871,-154 976.2732,-114.7499 1017.7268,-173.2501 1123,-134 1125.1861,-133.1849 1127.3552,-132.1959 1129.4811,-131.0849"/>
<polygon fill="#000000" stroke="#000000" points="1131.7448,-133.8028 1138.4445,-125.5952 1128.0887,-127.8334 1131.7448,-133.8028"/>
</g>
<!-- 2_10 -->
<g id="node29" class="node">
<title>2_10</title>
<polygon fill="none" stroke="#000000" points="628,-89.5 628,-125.5 682,-125.5 682,-89.5 628,-89.5"/>
<text text-anchor="middle" x="655" y="-103.8" font-family="Times,serif" font-size="14.00" fill="#000000">2_10</text>
</g>
<!-- 1_1&#45;&gt;2_10 -->
<g id="edge59" class="edge">
<title>1_1&#45;&gt;2_10</title>
<path fill="none" stroke="#000000" d="M813.4973,-162.2807C808.9352,-159.1196 803.9848,-156.1596 799,-154 754.207,-134.5938 735.793,-153.4062 691,-134 689.1307,-133.1901 687.2662,-132.2677 685.4253,-131.2644"/>
<polygon fill="#000000" stroke="#000000" points="686.8436,-128.025 676.5027,-125.7193 683.1487,-133.9705 686.8436,-128.025"/>
</g>
<!-- 2_12 -->
<g id="node31" class="node">
<title>2_12</title>
<polygon fill="none" stroke="#000000" points="1060,-89.5 1060,-125.5 1114,-125.5 1114,-89.5 1060,-89.5"/>
<text text-anchor="middle" x="1087" y="-103.8" font-family="Times,serif" font-size="14.00" fill="#000000">2_12</text>
</g>
<!-- 1_1&#45;&gt;2_12 -->
<g id="edge61" class="edge">
<title>1_1&#45;&gt;2_12</title>
<path fill="none" stroke="#000000" d="M855.9932,-162.262C860.6712,-159.0203 865.7957,-156.0342 871,-154 945.9691,-124.6973 976.0309,-163.3027 1051,-134 1053.1142,-133.1736 1055.2153,-132.1901 1057.2787,-131.0962"/>
<polygon fill="#000000" stroke="#000000" points="1059.3157,-133.9526 1066.0068,-125.738 1055.6534,-127.987 1059.3157,-133.9526"/>
</g>
<!-- 1_1&#45;&gt;2_15 -->
<g id="edge64" class="edge">
<title>1_1&#45;&gt;2_15</title>
<path fill="none" stroke="#000000" d="M855.5292,-162.3331C860.316,-158.9997 865.6015,-155.959 871,-154 1006.6208,-104.7861 1059.3792,-183.2139 1195,-134 1197.1931,-133.2042 1199.3676,-132.2298 1201.4976,-131.1298"/>
<polygon fill="#000000" stroke="#000000" points="1203.7493,-133.8566 1210.4708,-125.6669 1200.1092,-127.8775 1203.7493,-133.8566"/>
</g>
<!-- 1_3&#45;&gt;2_0 -->
<g id="edge35" class="edge">
<title>1_3&#45;&gt;2_0</title>
<path fill="none" stroke="#000000" d="M63.5127,-162.2873C68.3005,-158.9567 73.5906,-155.9288 79,-154 244.9884,-94.8151 309.0116,-193.1849 475,-134 477.1976,-133.2164 479.3754,-132.2515 481.5079,-131.1585"/>
<polygon fill="#000000" stroke="#000000" points="483.7519,-133.891 490.4873,-125.7127 480.1219,-127.9057 483.7519,-133.891"/>
</g>
<!-- 1_4&#45;&gt;2_0 -->
<g id="edge36" class="edge">
<title>1_4&#45;&gt;2_0</title>
<path fill="none" stroke="#000000" d="M742.0068,-162.262C737.3288,-159.0203 732.2043,-156.0342 727,-154 652.0309,-124.6973 621.9691,-163.3027 547,-134 544.8858,-133.1736 542.7847,-132.1901 540.7213,-131.0962"/>
<polygon fill="#000000" stroke="#000000" points="542.3466,-127.987 531.9932,-125.738 538.6843,-133.9526 542.3466,-127.987"/>
</g>
<!-- 1_4&#45;&gt;2_1 -->
<g id="edge44" class="edge">
<title>1_4&#45;&gt;2_1</title>
<path fill="none" stroke="#000000" d="M742.4708,-162.3331C737.684,-158.9997 732.3985,-155.959 727,-154 591.3792,-104.7861 538.6208,-183.2139 403,-134 400.8069,-133.2042 398.6324,-132.2298 396.5024,-131.1298"/>
<polygon fill="#000000" stroke="#000000" points="397.8908,-127.8775 387.5292,-125.6669 394.2507,-133.8566 397.8908,-127.8775"/>
</g>
<!-- 1_4&#45;&gt;2_3 -->
<g id="edge51" class="edge">
<title>1_4&#45;&gt;2_3</title>
<path fill="none" stroke="#000000" d="M786.7127,-162.3893C790.752,-159.4948 794.9512,-156.5999 799,-154 814.4014,-144.1102 819.5986,-143.8898 835,-134 836.2652,-133.1875 837.5452,-132.3463 838.8303,-131.4852"/>
<polygon fill="#000000" stroke="#000000" points="841.0711,-134.1903 847.2873,-125.6107 837.0776,-128.4412 841.0711,-134.1903"/>
</g>
<!-- 1_5&#45;&gt;2_0 -->
<g id="edge37" class="edge">
<title>1_5&#45;&gt;2_0</title>
<path fill="none" stroke="#000000" d="M669.4973,-162.2807C664.9352,-159.1196 659.9848,-156.1596 655,-154 610.207,-134.5938 591.793,-153.4062 547,-134 545.1307,-133.1901 543.2662,-132.2677 541.4253,-131.2644"/>
<polygon fill="#000000" stroke="#000000" points="542.8436,-128.025 532.5027,-125.7193 539.1487,-133.9705 542.8436,-128.025"/>
</g>
<!-- 1_5&#45;&gt;2_1 -->
<g id="edge42" class="edge">
<title>1_5&#45;&gt;2_1</title>
<path fill="none" stroke="#000000" d="M670.4445,-162.4048C665.6593,-159.067 660.3811,-156.0063 655,-154 549.7268,-114.7499 508.2732,-173.2501 403,-134 400.8139,-133.1849 398.6448,-132.1959 396.5189,-131.0849"/>
<polygon fill="#000000" stroke="#000000" points="397.9113,-127.8334 387.5555,-125.5952 394.2552,-133.8028 397.9113,-127.8334"/>
</g>
<!-- 1_5&#45;&gt;2_3 -->
<g id="edge49" class="edge">
<title>1_5&#45;&gt;2_3</title>
<path fill="none" stroke="#000000" d="M712.5027,-162.2807C717.0648,-159.1196 722.0152,-156.1596 727,-154 771.793,-134.5938 790.207,-153.4062 835,-134 836.8693,-133.1901 838.7338,-132.2677 840.5747,-131.2644"/>
<polygon fill="#000000" stroke="#000000" points="842.8513,-133.9705 849.4973,-125.7193 839.1564,-128.025 842.8513,-133.9705"/>
</g>
<!-- 1_6&#45;&gt;2_0 -->
<g id="edge38" class="edge">
<title>1_6&#45;&gt;2_0</title>
<path fill="none" stroke="#000000" d="M538.1011,-162.4551C533.9905,-154.1196 529.0205,-144.0416 524.4651,-134.8042"/>
<polygon fill="#000000" stroke="#000000" points="527.4833,-133.011 519.9213,-125.5904 521.2052,-136.1071 527.4833,-133.011"/>
</g>
<!-- 1_7&#45;&gt;2_0 -->
<g id="edge39" class="edge">
<title>1_7&#45;&gt;2_0</title>
<path fill="none" stroke="#000000" d="M483.8989,-162.4551C488.0095,-154.1196 492.9795,-144.0416 497.5349,-134.8042"/>
<polygon fill="#000000" stroke="#000000" points="500.7948,-136.1071 502.0787,-125.5904 494.5167,-133.011 500.7948,-136.1071"/>
</g>
<!-- 1_7&#45;&gt;2_1 -->
<g id="edge43" class="edge">
<title>1_7&#45;&gt;2_1</title>
<path fill="none" stroke="#000000" d="M451.2873,-162.3893C447.248,-159.4948 443.0488,-156.5999 439,-154 423.5986,-144.1102 418.4014,-143.8898 403,-134 401.7348,-133.1875 400.4548,-132.3463 399.1697,-131.4852"/>
<polygon fill="#000000" stroke="#000000" points="400.9224,-128.4412 390.7127,-125.6107 396.9289,-134.1903 400.9224,-128.4412"/>
</g>
<!-- 1_7&#45;&gt;2_3 -->
<g id="edge50" class="edge">
<title>1_7&#45;&gt;2_3</title>
<path fill="none" stroke="#000000" d="M495.5292,-162.3331C500.316,-158.9997 505.6015,-155.959 511,-154 646.6208,-104.7861 699.3792,-183.2139 835,-134 837.1931,-133.2042 839.3676,-132.2298 841.4976,-131.1298"/>
<polygon fill="#000000" stroke="#000000" points="843.7493,-133.8566 850.4708,-125.6669 840.1092,-127.8775 843.7493,-133.8566"/>
</g>
<!-- 1_9&#45;&gt;2_0 -->
<g id="edge34" class="edge">
<title>1_9&#45;&gt;2_0</title>
<path fill="none" stroke="#000000" d="M207.5555,-162.4048C212.3407,-159.067 217.6189,-156.0063 223,-154 328.2732,-114.7499 369.7268,-173.2501 475,-134 477.1861,-133.1849 479.3552,-132.1959 481.4811,-131.0849"/>
<polygon fill="#000000" stroke="#000000" points="483.7448,-133.8028 490.4445,-125.5952 480.0887,-127.8334 483.7448,-133.8028"/>
</g>
<!-- 1_10&#45;&gt;2_3 -->
<g id="edge52" class="edge">
<title>1_10&#45;&gt;2_3</title>
<path fill="none" stroke="#000000" d="M898.1011,-162.4551C893.9905,-154.1196 889.0205,-144.0416 884.4651,-134.8042"/>
<polygon fill="#000000" stroke="#000000" points="887.4833,-133.011 879.9213,-125.5904 881.2052,-136.1071 887.4833,-133.011"/>
</g>
<!-- 1_14&#45;&gt;2_3 -->
<g id="edge53" class="edge">
<title>1_14&#45;&gt;2_3</title>
<path fill="none" stroke="#000000" d="M955.2873,-162.3893C951.248,-159.4948 947.0488,-156.5999 943,-154 927.5986,-144.1102 922.4014,-143.8898 907,-134 905.7348,-133.1875 904.4548,-132.3463 903.1697,-131.4852"/>
<polygon fill="#000000" stroke="#000000" points="904.9224,-128.4412 894.7127,-125.6107 900.9289,-134.1903 904.9224,-128.4412"/>
</g>
<!-- 3_0 -->
<g id="node35" class="node">
<title>3_0</title>
<polygon fill="none" stroke="#000000" points="772,-16.5 772,-52.5 826,-52.5 826,-16.5 772,-16.5"/>
<text text-anchor="middle" x="799" y="-30.8" font-family="Times,serif" font-size="14.00" fill="#000000">3_0</text>
</g>
<!-- 2_1&#45;&gt;3_0 -->
<g id="edge65" class="edge">
<title>2_1&#45;&gt;3_0</title>
<path fill="none" stroke="#000000" d="M388.003,-89.2872C392.6803,-86.0436 397.8021,-83.0504 403,-81 467.9061,-55.3972 676.1512,-41.2822 761.7368,-36.439"/>
<polygon fill="#000000" stroke="#000000" points="761.9958,-39.9301 771.7865,-35.8812 761.6078,-32.9408 761.9958,-39.9301"/>
</g>
<!-- 2_2&#45;&gt;3_0 -->
<g id="edge67" class="edge">
<title>2_2&#45;&gt;3_0</title>
<path fill="none" stroke="#000000" d="M919.8964,-89.3093C915.7134,-86.3618 911.309,-83.4703 907,-81 884.1167,-67.8809 856.8199,-56.159 835.3944,-47.766"/>
<polygon fill="#000000" stroke="#000000" points="836.5903,-44.476 826.0004,-44.151 834.0762,-51.009 836.5903,-44.476"/>
</g>
<!-- 2_3&#45;&gt;3_0 -->
<g id="edge66" class="edge">
<title>2_3&#45;&gt;3_0</title>
<path fill="none" stroke="#000000" d="M853.2022,-89.4551C844.3752,-80.5054 833.5669,-69.547 823.9307,-59.7769"/>
<polygon fill="#000000" stroke="#000000" points="826.3566,-57.2523 816.8425,-52.5904 821.3728,-62.1678 826.3566,-57.2523"/>
</g>
<!-- 2_4&#45;&gt;3_0 -->
<g id="edge68" class="edge">
<title>2_4&#45;&gt;3_0</title>
<path fill="none" stroke="#000000" d="M744.7978,-89.4551C753.6248,-80.5054 764.4331,-69.547 774.0693,-59.7769"/>
<polygon fill="#000000" stroke="#000000" points="776.6272,-62.1678 781.1575,-52.5904 771.6434,-57.2523 776.6272,-62.1678"/>
</g>
<!-- 2_6 -->
<g id="node25" class="node">
<title>2_6</title>
<polygon fill="none" stroke="#000000" points="988,-89.5 988,-125.5 1042,-125.5 1042,-89.5 988,-89.5"/>
<text text-anchor="middle" x="1015" y="-103.8" font-family="Times,serif" font-size="14.00" fill="#000000">2_6</text>
</g>
<!-- 2_9 -->
<g id="node28" class="node">
<title>2_9</title>
<polygon fill="none" stroke="#000000" points="772,-89.5 772,-125.5 826,-125.5 826,-89.5 772,-89.5"/>
<text text-anchor="middle" x="799" y="-103.8" font-family="Times,serif" font-size="14.00" fill="#000000">2_9</text>
</g>
<!-- 2_14 -->
<g id="node33" class="node">
<title>2_14</title>
<polygon fill="none" stroke="#000000" points="412,-89.5 412,-125.5 466,-125.5 466,-89.5 412,-89.5"/>
<text text-anchor="middle" x="439" y="-103.8" font-family="Times,serif" font-size="14.00" fill="#000000">2_14</text>
</g>
</g>
</svg>
